<?xml version="1.0" standalone="no"?>
<!DOCTYPE svg PUBLIC "-//W3C//DTD SVG 20010904//EN"
 "http://www.w3.org/TR/2001/REC-SVG-20010904/DTD/svg10.dtd">
<svg version="1.0" xmlns="http://www.w3.org/2000/svg"
 width="112.000000pt" height="103.000000pt" viewBox="0 0 112.000000 103.000000"
 preserveAspectRatio="xMidYMid meet">

<g transform="translate(0.000000,103.000000) scale(0.100000,-0.100000)"
fill="#000000" stroke="none">
<path d="M386 884 c-197 -48 -352 -189 -375 -341 -16 -108 21 -207 109 -293
181 -178 518 -217 765 -87 80 42 169 132 201 202 37 80 36 181 -2 262 -55 116
-186 214 -340 253 -93 24 -268 26 -358 4z m404 -27 c291 -103 397 -359 234
-572 -39 -51 -159 -128 -245 -156 -65 -21 -92 -24 -219 -24 -127 0 -154 3
-219 24 -86 28 -203 103 -244 155 -113 145 -102 323 29 447 65 62 115 92 205
123 105 36 100 35 249 32 115 -3 146 -7 210 -29z"/>
<path d="M410 844 c-78 -21 -168 -66 -217 -108 -111 -97 -113 -251 -3 -350
156 -141 471 -172 680 -66 291 147 224 438 -121 524 -82 20 -263 20 -339 0z
m394 -27 c88 -33 158 -81 199 -137 29 -41 32 -51 32 -120 0 -69 -3 -79 -32
-120 -41 -56 -110 -104 -199 -137 -92 -35 -285 -44 -384 -19 -87 22 -178 67
-223 111 -154 149 -70 350 178 428 77 24 91 26 230 23 110 -3 141 -7 199 -29z"/>
</g>
</svg>
